# xmcd
#
# Track frame offsets:
#	150
#	23147
#	44011
#
# Disc length: 957 seconds
#
# Revision: 0
# Processed by: cddbd v1.5.2PL0 Copyright (c) Steve Scherf et al.
# Submitted via: audiograbber 1.83.01
#
DISCID=2003bb03
DTITLE=Joy Fleming and Robert Zephiro Milla - Since you are gone
DYEAR=2006
DGENRE=
TTITLE0=Since you are gone
TTITLE1=Mein
TTITLE2=India
EXTD=
EXTT0=
EXTT1=
EXTT2=
PLAYORDER=
